<svg xmlns="http://www.w3.org/2000/svg" viewBox="0 0 603 182">
  <path fill="#FF9900" d="M374.00 142.09C338.87 168.09 287.66 182.00 243.77 182.00C181.53 182.00 125.59 158.88 83.15 120.21C79.83 117.18 82.80 113.04 86.79 115.43C132.64 141.97 189.62 158.10 248.57 158.10C287.49 158.10 330.08 149.66 369.01 132.25C374.70 129.77 379.53 136.02 374.00 142.09Z"/>
  <path fill="#FF9900" d="M387.42 126.83C382.94 121.05 357.76 124.03 346.27 125.36C342.84 125.78 342.32 122.79 345.41 120.63C365.75 106.17 399.81 110.38 403.64 115.17C407.47 120.01 402.56 154.17 383.54 170.30C380.66 172.73 377.90 171.43 379.18 168.22C383.40 157.58 391.94 132.67 387.42 126.83Z"/>
  <path fill="#221F1F" d="M347.02 19.19L347.02 5.87C347.02 3.84 348.53 2.48 350.38 2.48L410.64 2.48C412.58 2.48 414.09 3.89 414.09 5.87L414.09 17.36C414.05 19.28 412.44 21.81 409.52 25.88L378.02 71.05C389.10 70.79 400.80 72.47 410.74 78.10C412.96 79.36 413.55 81.23 413.72 83.11L413.72 97.37C413.72 99.28 411.63 101.52 409.38 100.33C391.13 90.64 366.77 89.57 346.58 100.44C344.51 101.56 342.38 99.35 342.38 97.44L342.38 83.87C342.38 81.72 342.41 77.69 344.57 74.51L381.45 21.43L350.45 21.43C348.50 21.43 346.99 20.06 346.99 18.08L347.02 19.19Z"/>
  <path fill="#221F1F" d="M124.94 103.06L106.15 103.06C104.38 102.94 102.98 101.63 102.85 99.93L102.85 6.08C102.85 4.16 104.46 2.63 106.46 2.63L124.01 2.63C125.83 2.73 127.28 4.10 127.40 5.85L127.40 18.02L127.73 18.02C132.14 6.59 140.23 1.20 151.47 1.20C162.89 1.20 170.16 6.59 175.40 18.02C179.77 6.59 189.55 1.20 200.36 1.20C208.10 1.20 216.67 4.49 221.92 11.66C227.86 19.66 226.68 31.29 226.68 41.54L226.64 99.60C226.64 101.52 225.03 103.06 223.03 103.06L204.28 103.06C202.39 102.93 200.88 101.43 200.88 99.60L200.88 50.95C200.88 46.53 201.30 36.09 200.54 31.86C199.35 24.88 194.95 22.82 189.26 22.82C184.42 22.82 179.36 26.07 177.11 31.27C174.86 36.48 175.08 44.93 175.08 50.95L175.08 99.60C175.08 101.52 173.47 103.06 171.47 103.06L152.72 103.06C150.79 102.93 149.32 101.43 149.32 99.60L149.28 50.95C149.28 39.91 151.14 22.63 137.27 22.63C123.21 22.63 123.77 39.52 123.77 50.95L123.77 99.60C123.77 101.52 122.16 103.06 120.16 103.06L124.94 103.06Z"/>
  <path fill="#221F1F" d="M460.35 1.20C486.23 1.20 500.23 22.63 500.23 51.15C500.23 78.71 484.92 99.95 460.35 99.95C434.69 99.95 420.87 78.52 420.87 50.57C420.87 22.44 434.87 1.20 460.35 1.20ZM460.53 18.88C446.07 18.88 445.24 38.74 445.24 51.15C445.24 63.60 445.03 81.08 460.35 81.08C475.49 81.08 476.31 59.84 476.31 46.86C476.31 38.17 475.92 27.73 473.10 19.54C470.68 12.37 466.11 18.88 460.53 18.88Z"/>
  <path fill="#221F1F" d="M529.59 103.06L510.91 103.06C509.01 102.93 507.51 101.43 507.51 99.60L507.47 5.85C507.64 4.06 509.17 2.63 511.07 2.63L528.41 2.63C530.06 2.73 531.42 3.81 531.81 5.36L531.81 19.92L532.14 19.92C537.21 7.17 544.05 1.20 556.55 1.20C564.72 1.20 572.70 4.30 578.20 12.49C583.31 20.10 583.31 32.87 583.31 42.35L583.31 100.11C583.07 101.82 581.53 103.11 579.70 103.11L560.81 103.11C559.10 102.98 557.70 101.73 557.49 100.11L557.49 50.37C557.49 39.52 558.76 22.44 545.27 22.44C540.43 22.44 535.98 25.73 533.55 30.69C530.41 37.09 530.02 43.45 530.02 50.37L530.02 99.60C529.98 101.52 528.33 103.06 526.33 103.06L529.59 103.06Z"/>
  <path fill="#221F1F" d="M289.05 58.29C289.05 64.51 289.22 69.73 286.01 75.37C283.38 79.98 279.08 82.89 274.34 82.89C267.77 82.89 263.95 77.89 263.95 70.70C263.95 56.57 276.45 53.86 289.05 53.86L289.05 58.29ZM313.07 102.76C311.60 104.07 309.45 104.18 307.79 103.26C300.63 97.37 299.37 94.54 295.54 89.04C283.88 100.99 275.67 104.27 260.31 104.27C242.00 104.27 227.76 92.95 227.76 70.32C227.76 52.82 237.17 40.75 250.77 34.91C262.50 29.70 278.68 28.72 289.05 27.38L289.05 25.61C289.05 22.14 289.30 18.02 287.30 15.00C285.56 12.32 282.12 11.19 279.10 11.19C273.48 11.19 268.50 14.06 267.28 20.03C267.02 21.53 265.93 23.00 264.45 23.07L246.37 21.12C245.03 20.81 243.52 19.70 243.91 17.67C247.90 -3.39 266.09 -9.00 282.50 -9.00C290.89 -9.00 301.74 -6.90 308.57 0.08C317.78 8.65 316.93 19.89 316.93 32.49L316.93 65.08C316.93 74.00 320.55 77.93 324.00 82.81C325.23 84.57 325.52 86.67 323.92 87.94C319.95 91.23 312.93 97.37 309.07 100.80L313.07 102.76Z"/>
  <path fill="#221F1F" d="M53.44 58.29C53.44 64.51 53.62 69.73 50.40 75.37C47.77 79.98 43.48 82.89 38.73 82.89C32.17 82.89 28.34 77.89 28.34 70.70C28.34 56.57 40.84 53.86 53.44 53.86L53.44 58.29ZM77.46 102.76C76.00 104.07 73.85 104.18 72.18 103.26C65.03 97.37 63.76 94.54 59.93 89.04C48.27 100.99 40.06 104.27 24.71 104.27C6.39 104.27 -7.85 92.95 -7.85 70.32C-7.85 52.82 1.56 40.75 15.16 34.91C26.89 29.70 43.07 28.72 53.44 27.38L53.44 25.61C53.44 22.14 53.69 18.02 51.69 15.00C49.96 12.32 46.51 11.19 43.50 11.19C37.87 11.19 32.89 14.06 31.68 20.03C31.41 21.53 30.32 23.00 28.84 23.07L10.76 21.12C9.42 20.81 7.92 19.70 8.30 17.67C12.29 -3.39 30.48 -9.00 46.89 -9.00C55.28 -9.00 66.13 -6.90 72.96 0.08C82.17 8.65 81.32 19.89 81.32 32.49L81.32 65.08C81.32 74.00 84.95 77.93 88.39 82.81C89.62 84.57 89.91 86.67 88.31 87.94C84.35 91.23 77.32 97.37 73.46 100.80L77.46 102.76Z"/>
</svg>